<svg width="48" height="48" viewBox="0 0 48 48" fill="none" xmlns="http://www.w3.org/2000/svg">
<path d="M36 0H12C5.37258 0 0 5.37258 0 12V36C0 42.6274 5.37258 48 12 48H36C42.6274 48 48 42.6274 48 36V12C48 5.37258 42.6274 0 36 0Z" fill="#A259FF"/>
<path fill-rule="evenodd" clip-rule="evenodd" d="M26.9962 16.9394C27.582 16.3536 28.5318 16.3536 29.1175 16.9394L35.1175 22.9394C35.7033 23.5251 35.7033 24.4749 35.1175 25.0606L29.1175 31.0606C28.5318 31.6464 27.582 31.6464 26.9962 31.0606C26.4104 30.4749 26.4104 29.5251 26.9962 28.9394L31.9356 24L26.9962 19.0606C26.4104 18.4749 26.4104 17.5251 26.9962 16.9394Z" fill="white"/>
<path fill-rule="evenodd" clip-rule="evenodd" d="M20.9356 16.9394C21.5214 17.5251 21.5214 18.4749 20.9356 19.0606L15.9963 24L20.9356 28.9394C21.5214 29.5251 21.5214 30.4749 20.9356 31.0606C20.3499 31.6464 19.4001 31.6464 18.8144 31.0606L12.8144 25.0606C12.2286 24.4749 12.2286 23.5251 12.8144 22.9394L18.8144 16.9394C19.4001 16.3536 20.3499 16.3536 20.9356 16.9394Z" fill="white"/>
</svg>
